<svg xmlns="http://www.w3.org/2000/svg" viewBox="0 0 560 960" height="400">
    <g id="background">
      <path id="green-field" fill="#D6DE23" d="M10.2 502.9v355.9c0 50.6 41 91.6 91.6 91.6h356.3c50.6 0 91.6-41 91.6-91.6V502.9C478.1 439 383.6 400.1 280 400.1S81.9 439 10.2 502.9z"/>
      <path id="white-arc" fill="#FFF" d="M10 502.9C82 439 176.4 400.1 280 400.1s198 39 270 102.9v-19.8c-76-63.2-171.2-98-270-98-98.9 0-194 34.6-270 97.9v19.8z"/>
    </g>
    <g id="text" fill="#6C7BBA">
        <path d="M88 627.7c0 3 .2 5.3.5 7 .4 1.7 1 3 2 3.8.9.9 2.3 1.6 4 2 1.7.4 3.9.7 6.6 1 .5.1 1 .4 1.3.9.3.5.5 1 .5 1.6s-.2 1-.5 1.5c-.3.4-.8.7-1.4.7-3.6 0-7-.2-10.3-.6-3.3-.4-6.6-.6-9.8-.6-3.4 0-7 .2-10.6.6-3.6.4-7 .6-9.9.6-.5 0-.9-.2-1.2-.7-.3-.5-.4-.9-.4-1.5s.1-1.1.4-1.6c.3-.5.7-.8 1.2-.9 2.8-.3 5-.6 6.7-1 1.7-.4 3-1.1 3.9-2 .9-.9 1.6-2.2 1.9-3.8.3-1.7.5-4 .5-7V610l-11.6-22.6c-.4-.7-1.2-2.2-2.5-4.6-1.3-2.3-2.8-4.9-4.5-7.6-1.7-2.7-3.4-5.4-5.1-8-1.7-2.6-3.1-4.4-4.2-5.6-1.2-1.3-2.5-2-4.1-2.3-1.6-.3-3.5-.6-5.9-.9-.4-.1-.8-.4-1.1-.8-.3-.4-.4-.9-.4-1.5 0-.5.1-1 .4-1.5.3-.4.6-.7 1.1-.7 3.6 0 7 .1 10.1.4 3.2.3 6.3.4 9.3.4 3.3 0 6.7-.1 10-.4 3.3-.3 6.6-.4 9.7-.4.6 0 1.1.2 1.4.7.3.5.4.9.4 1.5 0 .5-.2 1-.5 1.5s-.7.7-1.3.8c-3.4.4-5.8.9-7.2 1.8-1.4.8-2.1 2-2.1 3.5 0 1.7.9 4.2 2.6 7.4L84 601.8c.3.5.6.8.9 1 .4.2.8-.1 1.4-1 2.5-4.1 4.9-8 7.1-12 2.2-3.9 4.1-7.5 5.8-10.9 1.7-3.3 3-6.2 3.9-8.7.9-2.5 1.4-4.3 1.4-5.6 0-1.4-.2-2.4-.6-3.2-.4-.8-1-1.4-1.8-1.8s-1.8-.7-2.9-.8c-1.1-.1-2.4-.3-3.7-.5-.5-.1-.9-.4-1.1-.8-.2-.4-.3-.9-.3-1.5 0-.5.1-1 .4-1.5.3-.4.6-.7 1.1-.7 3.3 0 6.2.1 8.7.4 2.5.3 5 .4 7.5.4 2.1 0 4.2-.1 6.4-.4 2.2-.3 4.6-.4 7.2-.4.5 0 .9.2 1.1.7.2.5.3.9.3 1.5 0 .5-.2 1.1-.5 1.6s-.6.7-1.1.7c-3.3.3-6.4 1.9-9.3 4.9-1.8 1.8-3.4 3.8-4.8 6.1s-2.6 4.2-3.6 5.9L88 608.6v19.1zM171.7 646.4c-14.1 0-25.2-4-33.2-12-8-8-12-20-12-35.9 0-6.8 1.1-13.1 3.4-18.9 2.2-5.8 5.4-10.7 9.4-14.9 4-4.1 8.8-7.4 14.4-9.7 5.6-2.3 11.8-3.4 18.5-3.4 6.6 0 12.6 1.1 18.1 3.3 5.5 2.2 10.2 5.3 14.2 9.4 4 4.1 7 8.9 9.3 14.7 2.2 5.7 3.3 12.1 3.3 19.1 0 7.8-1.2 14.7-3.6 20.7-2.4 6-5.6 11-9.7 15.1s-8.9 7.2-14.4 9.3c-5.6 2.2-11.4 3.2-17.7 3.2zm.6-5.6c4.4 0 8.3-1.2 11.7-3.5 3.4-2.3 6.2-5.4 8.6-9.3 2.3-3.8 4.1-8.2 5.3-13.2 1.2-5 1.8-10.2 1.8-15.6 0-5.2-.5-10.4-1.4-15.4-.9-5-2.5-9.5-4.7-13.4s-5-7.1-8.6-9.5c-3.6-2.4-8-3.6-13.2-3.6-4.9 0-9.1 1.2-12.6 3.6-3.6 2.4-6.5 5.6-8.7 9.5-2.3 3.9-3.9 8.4-5 13.4s-1.6 10.1-1.6 15.2c0 5.4.4 10.6 1.4 15.7.9 5 2.4 9.5 4.6 13.3 2.2 3.8 5.1 6.9 8.7 9.3 3.5 2.3 8.1 3.5 13.7 3.5zM310.5 609.4c0 5.9-.7 11.1-2 15.7s-3.4 8.6-6.2 11.8c-2.8 3.2-6.6 5.7-11.1 7.4-4.6 1.7-10.2 2.6-16.7 2.6-6.3 0-11.8-.6-16.4-1.9-4.6-1.3-8.5-3.3-11.5-6s-5.2-6.3-6.7-10.7c-1.4-4.4-2.2-9.7-2.2-15.9v-37.8c0-2.8-.2-5.2-.5-7.2s-.9-3.6-1.8-4.9c-.9-1.3-2.2-2.2-3.8-2.9-1.7-.7-3.9-1.1-6.7-1.3-.5 0-.9-.2-1.2-.7-.3-.5-.4-1-.4-1.6 0-.5.1-1 .4-1.5.3-.4.7-.7 1.2-.7 2.9 0 6.2.2 9.9.5s7.2.5 10.4.5c1.9 0 3.7 0 5.3-.1 1.7-.1 3.3-.2 4.9-.3l4.8-.3c1.6-.1 3.4-.1 5.3-.1.5 0 .9.2 1.1.7.2.5.3.9.3 1.5 0 .5-.2 1.1-.5 1.6s-.6.7-1.1.7c-2.8.2-5 .6-6.8 1.1-1.7.6-3 1.5-3.9 2.7-.9 1.2-1.5 2.8-1.8 4.8-.3 2-.4 4.5-.4 7.6v36.9c0 3.8.5 7.4 1.5 10.8 1 3.4 2.5 6.4 4.5 9 2 2.6 4.6 4.6 7.6 6.1 3.1 1.5 6.7 2.3 10.8 2.3 8.7 0 15.4-2.4 20-7.2 4.6-4.8 6.9-12.4 6.9-22.9v-22.8-5.3c0-2.2 0-4.3-.1-6.4-.1-2.1-.2-4.1-.4-6.1-.2-1.9-.5-3.4-.8-4.5-.5-1.5-.9-2.7-1.4-3.4-.5-.8-1.1-1.3-1.8-1.7-.7-.4-1.6-.6-2.7-.6s-2.4-.2-4.1-.3c-.5 0-.8-.2-1-.7-.2-.5-.3-1-.3-1.6 0-.5.1-1 .3-1.5.2-.4.5-.7 1.1-.7 2.2 0 4.5.2 6.9.5 2.4.3 4.9.5 7.4.5 2.3 0 4.7-.2 7-.5s5-.5 7.8-.5c.5 0 .9.2 1.2.7.3.5.4.9.4 1.5 0 .5-.1 1.1-.4 1.6-.3.5-.7.7-1.2.7-1.6.2-2.9.3-3.9.3-.9 0-1.7.2-2.4.6-.6.4-1.2.9-1.7 1.7-.5.8-1.1 1.9-1.7 3.4-.5 1.1-.8 2.6-1 4.5-.2 1.9-.4 3.9-.5 6-.1 2.1-.1 4.3-.1 6.4 0 2.2.1 4.1.1 5.7v22.2zM341.1 569c0-3-.9-5.4-2.8-7.2-1.8-1.8-5.1-3-9.7-3.4-.5 0-.8-.2-1-.7-.2-.5-.3-1-.3-1.6 0-.5.1-1 .3-1.5.2-.4.6-.7 1.1-.7h5.1c2.3 0 4.7.1 7.2.2 2.4.1 4.6.3 6.6.6s3.2.6 3.5 1.1l54.4 64.7c1.1 1.2 1.6.9 1.6-.7v-33.1-5.3c0-2.2 0-4.3-.1-6.4-.1-2.1-.2-4.1-.3-6-.1-1.9-.4-3.4-.7-4.5-.5-1.4-.9-2.4-1.4-3.2-.5-.8-1.1-1.4-1.8-1.8-.8-.4-1.7-.7-2.8-.8-1.1-.1-2.5-.3-4.1-.5-.5 0-.8-.2-1-.7-.2-.5-.3-1-.3-1.6 0-.5.1-1 .3-1.5.2-.4.5-.7 1.1-.7 2.2 0 4.5.1 7 .4 2.5.3 5 .4 7.5.4 2.3 0 4.7-.1 7-.4 2.3-.3 4.9-.4 7.8-.4.5 0 .9.2 1.2.7.3.5.4.9.4 1.5 0 .5-.1 1.1-.4 1.6-.3.5-.7.7-1.2.7-1.6.2-2.9.3-3.8.4-.9.1-1.8.3-2.4.7-.7.4-1.3.9-1.8 1.7-.5.8-1.1 1.9-1.8 3.4-.5 1.1-.8 2.6-1.1 4.5-.3 1.9-.5 3.9-.6 6.1-.1 2.2-.2 4.3-.2 6.5v64.2c0 .3-.2.5-.7.7-.5.2-1.1.3-1.8.3s-1.3 0-2-.1c-.6-.1-1-.3-1.2-.5l-58.1-68.9c-.7-.8-1.3-1.2-1.6-1.1-.4 0-.5.7-.5 1.8v49.2c0 3.2.2 5.8.7 7.6.5 1.8 1.3 3.1 2.3 4 1 .9 2.3 1.4 3.8 1.8 1.5.3 3.3.6 5.4.9.5.1.9.4 1.2.8.3.5.4.9.3 1.5 0 .5-.2 1-.5 1.5s-.7.7-1.2.7c-2 0-4.2-.2-6.6-.5-2.4-.3-5.2-.5-8.4-.5-3.4 0-6.5.2-9.1.5-2.7.3-4.9.5-6.7.5-.5 0-.8-.2-1.1-.7-.3-.4-.4-.9-.5-1.5 0-.5.1-1 .3-1.5.3-.4.7-.7 1.2-.8 2.3-.3 4.3-.6 5.9-.9 1.6-.3 2.8-.9 3.8-1.8.9-.9 1.6-2.2 2-4 .4-1.8.6-4.3.6-7.6V569zM516.3 634.3c0 .7-.2 1.2-.7 1.4-2.3 1.7-4.6 3.3-6.8 4.7-2.2 1.4-4.6 2.6-7.4 3.5-2.7.9-5.9 1.7-9.6 2.2-3.6.5-8 .7-13.2.7-7.4 0-13.9-1.1-19.7-3.2-5.7-2.1-10.5-5.2-14.4-9.2-3.9-4-6.8-8.9-8.8-14.8-2-5.9-3-12.5-3-20 0-7.7 1.2-14.5 3.6-20.5 2.4-6 5.7-11 9.9-15.1s9.3-7.1 15.1-9.3c5.8-2.1 12.1-3.2 19-3.2 4.3 0 8.4.6 12.4 1.8 3.9 1.2 7.5 2.6 10.9 4.2 1.9.9 3.5 1.4 4.7 1.6 1.3.2 2.2-.6 2.8-2.4.1-.4.4-.8.9-.9.5-.2 1-.2 1.5-.2s.9.2 1.3.4.5.5.4.9c-.8 3.4-1.1 7.2-.9 11.5.2 4.2.6 8.6 1 13 0 .5-.2.9-.7 1.2-.5.4-.9.6-1.5.7-.5.1-1.1 0-1.6-.2s-.9-.6-.9-1.1c-1.3-7.8-4.6-13.8-10.1-18-5.4-4.2-12.4-6.3-20.9-6.3-5.2 0-9.7 1.2-13.4 3.6-3.7 2.4-6.8 5.5-9.2 9.3-2.4 3.8-4.1 8.1-5.3 12.8-1.1 4.8-1.7 9.5-1.7 14.2 0 6.6.7 12.5 2 17.9 1.3 5.4 3.2 10 5.8 13.8 2.6 3.8 5.7 6.8 9.4 8.8 3.7 2.1 8 3.1 12.8 3.1 3.5 0 6.7-.2 9.6-.7 2.9-.5 5.3-1.4 7.4-2.6 2-1.3 3.6-3 4.7-5.2s1.7-5 1.7-8.4c0-2.7-.2-4.8-.5-6.3-.4-1.5-1-2.7-2-3.5-1-.8-2.3-1.4-4.1-1.7-1.7-.3-3.9-.6-6.6-.9-.6 0-1.1-.2-1.4-.7-.3-.5-.4-.9-.4-1.4 0-.5.1-1 .3-1.4.2-.4.6-.6 1.1-.6 3.2 0 6.4.1 9.8.3 3.4.2 6.4.3 9 .3 1.3 0 2.5 0 3.6-.1s2.3-.2 3.5-.2c1.2 0 2.5-.1 3.9-.2s3-.1 4.8-.1c.5 0 .8.2 1 .6.2.4.3.9.3 1.4 0 .5-.1.9-.4 1.3-.3.4-.7.7-1.2.7-2 .2-3.5.5-4.6.9-1.1.5-1.9 1.1-2.4 1.9-.5.8-.8 1.8-.9 3-.1 1.2-.1 2.7-.1 4.4v12.3zM54.1 682.2c0-2.8-.2-5-.6-6.6-.4-1.6-1.1-2.8-2.1-3.7-1-.9-2.3-1.5-3.9-1.8-1.6-.3-3.6-.6-6-.8-.6 0-1-.3-1.3-.8-.3-.5-.5-1.1-.5-1.6 0-.6.2-1.1.5-1.5.3-.5.8-.7 1.3-.7h3.8c1.8 0 3.7 0 5.9.1 2.2 0 4.4.1 6.7.1s4.4.1 6.2.3c1.9.1 3.4.3 4.7.6 1.3.2 2 .5 2.2.9l28.5 66.9c.2.3.4.4.6.4.3 0 .5-.1.7-.4l28.1-66.9c.1-.4 1.3-.7 3.6-.9 2.3-.2 5-.4 8-.6 3-.1 6.1-.3 9.3-.4 3.1-.1 5.6-.1 7.5-.1.6 0 1 .2 1.2.7.2.5.4 1 .4 1.5 0 .6-.1 1.1-.4 1.5-.3.5-.7.7-1.1.8-3.2.6-5.7 1.1-7.4 1.5-1.8.5-3.1 1.3-3.9 2.6-.8 1.3-1.4 3.1-1.5 5.5-.2 2.4-.3 5.9-.3 10.4V741c0 3.1.2 5.5.6 7.2.4 1.7 1.1 3.1 2 4 1 .9 2.4 1.6 4.1 2 1.8.4 4.1.8 6.9 1.1.6.1 1 .4 1.3.9.3.5.5 1.1.5 1.6 0 .6-.2 1.1-.5 1.5-.3.5-.8.7-1.5.7-3.7 0-7.3-.2-10.7-.6-3.4-.4-6.8-.6-10.2-.6-3.6 0-7.2.2-11 .6-3.8.4-7.2.6-10.3.6-.6 0-1-.2-1.3-.7-.3-.5-.4-1-.4-1.5 0-.6.1-1.1.4-1.6.3-.5.7-.8 1.3-.9 2.9-.3 5.2-.6 6.9-1.1 1.7-.4 3.1-1.1 4.1-2 1-.9 1.6-2.3 2-4 .3-1.7.5-4.1.5-7.2v-52.1c0-.7-.4-1-1.1-.9-.8 0-1.2.4-1.4.9l-20.2 47.6c-1.4 3.3-2.8 6.9-4.1 10.7-1.4 3.9-2.7 7.8-4 11.7-.1.3-.4.5-.8.6-.4.1-.9.2-1.3.2-.5 0-.9-.1-1.3-.2s-.7-.4-.8-.6l-30.9-70.7c-.2-.5-.6-.7-1.2-.8-.6-.1-.9.2-.9 1v52.2c0 3.4.3 6 .8 7.9.6 1.9 1.4 3.3 2.5 4.2 1.1.9 2.4 1.6 4 1.9 1.6.3 3.5.6 5.6.9.5.1.8.4 1.1.8.2.5.4 1 .4 1.5 0 .6-.1 1.1-.4 1.5-.2.5-.6.7-1.2.7-2.1 0-4.3-.2-6.8-.6-2.5-.4-5.4-.6-8.8-.6-3.6 0-6.7.2-9.5.6-2.8.4-5.1.6-6.9.6-.5 0-.8-.2-1.1-.7-.3-.5-.4-1-.5-1.5 0-.6.1-1.1.4-1.5.3-.5.7-.7 1.3-.8 2.4-.3 4.5-.6 6.1-.9 1.6-.3 2.9-1 3.9-1.9 1-.9 1.7-2.3 2.1-4.2.4-1.9.6-4.5.6-7.9v-58.4zM233.1 665.1c.7 0 1.5.1 2.2.3.7.2 1 .9.8 2.2-.2 1-.3 2.2-.3 3.5v3.9c0 4.2.1 8.1.4 11.8 0 .4-.2.7-.6.9-.4.2-.9.4-1.5.4s-1.1 0-1.6-.2-.8-.6-.9-1.1c-.7-3.6-1.3-6.5-2-8.6-.7-2.1-1.6-3.6-2.7-4.7-1.2-1.1-2.8-1.8-4.8-2-2-.3-4.7-.5-7.9-.6h-8.4c-2.4 0-4.4 0-5.8.1-1.5.1-2.6.4-3.4 1.1-.8.6-1.4 1.6-1.7 2.9-.3 1.3-.4 3.1-.4 5.5v24.6c0 1.3.2 2.1.7 2.5.5.3.9.5 1.4.5 4.3 0 7.7-.2 10.2-.6 2.5-.4 4.3-1.1 5.6-2 1.3-1 2.1-2.3 2.5-3.9.4-1.6.8-3.6 1.1-6.2.1-.6.4-1 .8-1.3.5-.3 1-.4 1.5-.4.6 0 1.1.1 1.5.4.5.3.7.7.7 1.3 0 1.5 0 2.8-.1 4-.1 1.2-.2 2.3-.3 3.5l-.3 3.6c-.1 1.3-.1 2.7-.1 4.4 0 2.8.1 5.4.4 7.6.3 2.3.4 5.1.4 8.3 0 .5-.2.8-.7 1.1-.5.2-1 .3-1.5.3-.6 0-1.1-.2-1.5-.4-.5-.2-.8-.6-.8-1.2-.3-2.7-.6-4.9-1.1-6.6-.4-1.7-1.3-3-2.5-3.9-1.3-.9-3.1-1.5-5.6-1.8-2.5-.3-5.9-.5-10.2-.5-.5 0-.9.2-1.4.5-.5.3-.7 1-.7 2v18.4c0 3 .2 5.5.6 7.6.4 2.1 1.1 3.8 1.9 5.2.8 1.4 1.9 2.4 3.1 3.2 1.2.8 2.7 1.4 4.3 1.8 1.3.3 2.8.5 4.4.6 1.6.1 3.3.2 5.1.2 2.2 0 4.3-.1 6.3-.3 2-.2 3.5-.5 4.5-.8 1.9-.7 3.5-1.4 4.8-2.1 1.4-.7 2.5-1.7 3.4-2.9.9-1.2 1.7-2.7 2.3-4.6.6-1.8 1.1-4.1 1.5-6.9.1-.6.4-.9 1-1.1.6-.2 1.2-.3 1.8-.3.7 0 1.2.1 1.8.4.5.3.7.7.6 1.1-.5 3.9-.9 7.6-1.3 11-.4 3.4-.5 6.9-.4 10.5 0 .3-.2.7-.6 1.2-.4.5-1.3.8-2.7.8H186c-3.6 0-7 .1-10.5.3-3.4.2-6.5.4-9.2.6-.7 0-1.3-.2-1.7-.6-.4-.4-.6-.9-.7-1.5-.1-.6 0-1.2.4-1.7s1-.8 1.8-.9c2.2-.3 4.2-.7 5.8-1.2 1.6-.5 2.9-1.3 3.9-2.2 1-1 1.8-2.2 2.3-3.7.5-1.5.8-3.4.8-5.8v-54c0-2.1-.1-4.1-.2-6-.1-2-.4-3.8-.9-5.5-.5-1.7-1.2-3.1-2.2-4.3-1-1.2-2.3-2.1-4-2.5-1-.3-2.1-.5-3.2-.7-1.1-.2-2.2-.3-3.2-.4-.6 0-1-.2-1.3-.7-.3-.5-.4-1-.4-1.5 0-.6.1-1.1.4-1.5.3-.5.7-.7 1.3-.7 3.2 0 6 .1 8.6.3 2.5.2 5.5.3 8.8.3h50.5zM260.5 688.7c0-2.1-.1-4.1-.2-6s-.4-3.8-.9-5.5c-.5-1.7-1.2-3.1-2.2-4.3-1-1.2-2.3-2.1-4-2.5-1-.3-2.1-.5-3.2-.7-1.1-.2-2.2-.3-3.2-.4-.6 0-1-.2-1.3-.7-.3-.5-.4-1-.4-1.5 0-.6.1-1.1.4-1.5.3-.5.7-.7 1.3-.7 3.2 0 6 .1 8.6.3 2.5.2 5.5.3 8.8.3 5.6-.1 10.3-.2 14-.4 3.7-.1 7.2-.2 10.6-.2 3.7 0 7.4.4 11.1 1.3 3.6.9 6.9 2.3 9.8 4.3 2.9 2 5.1 4.5 6.9 7.7 1.7 3.2 2.6 7 2.6 11.5 0 3.6-.5 6.6-1.6 9.3-1.1 2.6-2.5 4.9-4.4 6.7-1.9 1.9-4.1 3.4-6.7 4.6-2.6 1.2-5.4 2.1-8.3 2.7-.7.2-1 .5-1 1 0 .4.3.8 1 1.1 4.4 2.2 7.8 4.5 10.2 7.2 2.4 2.6 4.2 5.3 5.5 8.1 1.3 2.8 2.2 5.7 2.7 8.6.6 2.9 1.2 5.8 1.8 8.6.5 2.2 1.2 3.7 2.3 4.7 1.1 1 2.2 1.5 3.3 1.5s2.2-.5 3.2-1.4c1-.9 1.8-2.3 2.4-4.2.2-.7.6-1.2 1.1-1.5.6-.2 1.1-.3 1.6-.1.5.1 1 .4 1.4.8s.6.9.5 1.3c-.3 2.3-.9 4.3-2 6-1 1.7-2.3 3.1-3.7 4.1-1.5 1.1-3.1 1.9-4.9 2.4-1.8.5-3.6.8-5.4.8-3 0-5.7-.7-8.1-2-2.4-1.3-4.1-3.2-4.9-5.6-.6-1.6-1.1-3.3-1.6-5.2l-1.5-5.7c-.5-1.9-.9-3.8-1.4-5.6-.5-1.8-.9-3.4-1.3-4.8-1.7-6-3.9-10.3-6.5-12.9-2.7-2.6-6.4-3.9-11.2-3.9-1.6 0-2.9.3-4.1 1-1.1.7-1.7 2-1.7 3.9V740c0 3.2.3 5.7 1 7.6.7 1.9 1.6 3.4 2.9 4.5 1.3 1.1 2.9 1.8 4.8 2.3 1.9.5 4.1.8 6.7 1 .6 0 1 .3 1.3.8.3.5.5 1.1.5 1.8 0 .6-.2 1.1-.5 1.5-.3.5-.8.7-1.5.7-4.7 0-8.8-.2-12.3-.6-3.6-.4-7-.6-10.4-.6-3.6 0-7.1.2-10.5.6-3.5.4-6.8.6-10.1.6-.6 0-1-.2-1.3-.7-.3-.5-.4-1-.5-1.5 0-.6.1-1.1.4-1.6.3-.5.7-.8 1.4-.9 2.6-.3 4.8-.7 6.5-1.1 1.7-.5 3-1.2 3.9-2.2.9-1 1.6-2.4 1.9-4.1.3-1.7.5-3.9.5-6.7v-52.7zm15.3 16.7c0 2.4.7 3.9 2 4.3 1.4.4 3.4.6 6.1.6 3.6 0 6.7-.4 9.2-1.1 2.5-.7 4.5-1.9 6-3.5s2.5-3.7 3.2-6.3c.6-2.6.9-5.7.9-9.5 0-3.6-.3-6.6-1-9-.7-2.5-1.7-4.5-3.2-6-1.5-1.5-3.3-2.6-5.7-3.3-2.3-.7-5.2-1-8.6-1-3.6 0-6.1.5-7.2 1.4-1.2.9-1.8 2.9-1.8 5.8v27.6zM388.4 662.3c4.2 0 8.1.5 11.6 1.5 3.6 1 7.1 2.4 10.5 4.1 1 .5 2 .9 2.9 1.3.9.4 1.7.6 2.3.6 1.5 0 2.5-.9 2.9-2.7.1-.4.4-.7.9-.8.5-.2 1-.3 1.5-.2.5 0 1 .2 1.3.4.4.2.5.5.4.8-.4 1.5-.6 3-.8 4.6-.1 1.6-.2 3.2-.2 4.9 0 2.6.2 5.2.6 7.9.4 2.6.7 5.3 1.1 8.1 0 .4-.2.7-.6.9-.4.2-.9.4-1.5.4s-1.2 0-1.8-.2c-.6-.2-.9-.5-1-1-2.3-8.4-6.1-14.6-11.4-18.6-5.2-4-11.8-6-19.8-6-6.2 0-11.3 1.3-15.3 3.9-4 2.6-7.2 6-9.6 10.2-2.4 4.2-4 8.7-5 13.8-.9 5-1.4 9.9-1.4 14.7 0 5.2.6 10.5 1.7 15.7 1.1 5.2 2.9 10 5.5 14.2 2.5 4.2 5.8 7.6 9.9 10.3 4.1 2.7 9 4 14.8 4 4.5 0 8.5-.4 12.1-1.2 3.6-.8 6.5-2.3 9-4.4 3-2.7 5.4-6 7.2-9.8 1.8-3.8 3-8.1 3.8-12.8.1-.7.4-1.1.9-1.3.5-.2 1.1-.2 1.6-.1.6.1 1.1.4 1.5.8.5.4.7.8.6 1.1-.3 1.9-.5 3.7-.6 5.5-.1 1.8-.1 3.7-.1 5.5 0 3.2.1 6.4.4 9.8.2 3.3.4 6.8.6 10.5 0 .6-.2 1-.6 1.3-.4.3-.8.4-1.3.5-.5 0-1 0-1.5-.3-.5-.2-.8-.6-.8-1.1-.2-.8-.5-1.7-1-2.5s-1.1-1.4-1.8-2c-.8-.5-1.6-.8-2.7-.8-.9 0-2 .3-3.2 1-2.1 1.1-4 2.1-6 2.9-1.9.8-3.9 1.4-5.8 1.9-2 .5-4 .8-6.2 1-2.2.2-4.5.3-7 .3-16.6 0-28.8-4.1-36.8-12.4-8-8.3-12-20.1-12-35.6 0-8.2 1.3-15.5 3.8-21.8 2.5-6.3 6-11.6 10.5-15.9 4.4-4.3 9.7-7.6 15.9-9.8 6.2-2 12.8-3.1 20-3.1zM482.6 741.3c0 3.1.2 5.5.6 7.2.4 1.7 1.1 3.1 2 4 1 .9 2.4 1.6 4.1 2 1.8.4 4.1.8 6.9 1.1.6.1 1 .4 1.3.9.3.5.5 1.1.5 1.6s-.2 1.1-.5 1.5c-.3.5-.8.7-1.5.7-3.7 0-7.3-.2-10.7-.6-3.4-.4-6.8-.6-10.2-.6-3.6 0-7.2.2-11 .6-3.8.4-7.2.6-10.3.6-.6 0-1-.2-1.3-.7-.3-.5-.4-1-.4-1.5s.1-1.1.4-1.6c.3-.5.7-.8 1.3-.9 2.9-.3 5.2-.6 6.9-1.1 1.7-.4 3.1-1.1 4.1-2 1-.9 1.6-2.3 2-4 .3-1.7.5-4.1.5-7.2v-18.4l-12.1-23.4c-.4-.7-1.2-2.3-2.6-4.8-1.4-2.4-2.9-5.1-4.6-7.9-1.7-2.9-3.5-5.6-5.3-8.3-1.8-2.7-3.2-4.6-4.3-5.8-1.2-1.3-2.6-2.1-4.3-2.4-1.6-.3-3.7-.6-6.1-1-.5-.1-.8-.4-1.1-.8-.3-.5-.4-1-.4-1.5 0-.6.1-1.1.4-1.5.3-.5.7-.7 1.1-.7 3.7 0 7.2.1 10.5.4 3.3.3 6.5.4 9.7.4 3.5 0 6.9-.1 10.4-.4 3.5-.3 6.8-.4 10.1-.4.7 0 1.1.2 1.4.7.3.5.4 1 .4 1.5 0 .6-.2 1.1-.5 1.5-.3.5-.8.7-1.3.8-3.6.4-6.1 1-7.5 1.8-1.5.8-2.2 2.1-2.2 3.6 0 1.8.9 4.3 2.7 7.7l16.7 31.9c.3.5.6.8 1 1.1.4.2.8-.1 1.4-1.1 2.6-4.2 5.1-8.3 7.4-12.4 2.3-4.1 4.3-7.8 6-11.3 1.7-3.5 3.1-6.5 4.1-9.1 1-2.6 1.5-4.5 1.5-5.8 0-1.4-.2-2.5-.6-3.3-.4-.8-1.1-1.4-1.9-1.8s-1.8-.7-3-.8c-1.2-.1-2.5-.3-3.9-.5-.6-.1-1-.4-1.2-.8-.2-.5-.4-1-.4-1.5 0-.6.1-1.1.4-1.5.3-.5.7-.7 1.1-.7 3.5 0 6.5.1 9 .4 2.6.3 5.2.4 7.8.4 2.2 0 4.4-.1 6.7-.4 2.3-.3 4.8-.4 7.5-.4.6 0 1 .2 1.2.7.2.5.3 1 .3 1.5 0 .6-.2 1.1-.5 1.6s-.7.8-1.1.8c-3.5.3-6.7 2-9.7 5.1-1.9 1.9-3.5 4-5 6.3s-2.7 4.4-3.7 6.2l-20.2 34.7v19.6zM58.6 807.7c0-3.4-.2-6.4-.6-8.8-.4-2.4-1.1-4.4-2.2-6-1.1-1.6-2.7-2.7-4.7-3.6-2.1-.8-4.8-1.4-8.2-1.6-.7 0-1.2-.3-1.5-.9-.3-.6-.5-1.2-.5-1.9s.2-1.3.5-1.8c.3-.6.8-.8 1.5-.8 3.5 0 7.6.2 12.1.5s8.8.5 12.8.5c2.3 0 4.5-.1 6.6-.2l6-.3c1.9-.1 3.9-.2 5.9-.3 2-.1 4.2-.2 6.5-.2.7 0 1.1.3 1.4.8.3.6.4 1.2.3 1.8-.1.7-.2 1.3-.6 1.9-.3.6-.8.9-1.3.9-3.4.2-6.2.7-8.3 1.4-2.1.7-3.7 1.8-4.8 3.3-1.1 1.5-1.8 3.5-2.2 5.9-.3 2.4-.5 5.5-.5 9.3v57.9c0 3.5.2 6.5.5 8.9.3 2.4.9 4.4 1.8 6 .9 1.6 2.1 2.9 3.7 3.7 1.6.9 3.5 1.7 5.8 2.3 1.6.3 3.3.6 5.2.7 1.9.2 4 .2 6.1.2 2.7 0 5.2-.1 7.5-.3 2.3-.2 4.1-.6 5.3-1 2.2-.8 4.1-1.6 5.7-2.5 1.6-.9 3-2 4.1-3.5 1.1-1.4 2-3.2 2.7-5.4.7-2.2 1.3-4.9 1.7-8.2.1-.7.5-1.1 1.2-1.3.7-.2 1.4-.3 2.2-.3.8 0 1.5.2 2.1.5.6.3.9.8.7 1.3-.6 4.7-1.1 9-1.5 13.1-.4 4-.6 8.2-.5 12.4 0 .3-.2.8-.7 1.4-.4.6-1.5.9-3.2.9H66.9c-4.3 0-8.5.1-12.5.4-4 .3-7.9.5-11.8.7-.8 0-1.4-.3-1.7-.8-.4-.6-.6-1.2-.6-1.8s.2-1.3.6-1.9c.4-.6 1-1 1.7-1.1 3.4-.4 6.2-.9 8.3-1.4 2.1-.5 3.7-1.3 4.8-2.3 1.1-1.1 1.9-2.6 2.2-4.7.4-2 .6-4.9.6-8.6v-65.2zM156.2 807.7c0-3.4-.2-6.4-.6-8.8-.4-2.4-1.1-4.4-2.2-6-1.1-1.6-2.7-2.7-4.7-3.6-2.1-.8-4.8-1.4-8.2-1.6-.7 0-1.2-.3-1.5-.9-.3-.6-.5-1.2-.5-1.9s.2-1.3.5-1.8c.3-.6.8-.8 1.5-.8 3.5 0 7.6.2 12.1.5s8.8.5 12.8.5c2.3 0 4.5-.1 6.6-.2l6-.3c1.9-.1 3.9-.2 5.9-.3 2-.1 4.2-.2 6.5-.2.7 0 1.1.3 1.4.8.3.6.4 1.2.3 1.8-.1.7-.2 1.3-.6 1.9-.3.6-.8.9-1.3.9-3.4.2-6.2.7-8.3 1.4-2.1.7-3.7 1.8-4.8 3.3-1.1 1.5-1.8 3.5-2.2 5.9-.3 2.4-.5 5.5-.5 9.3v65.2c0 3.7.2 6.5.7 8.6.4 2.1 1.2 3.6 2.4 4.7s2.8 1.9 4.9 2.4c2.1.5 4.8.9 8.1 1.2.7.1 1.2.5 1.6 1.1.4.6.6 1.2.6 1.9s-.2 1.3-.6 1.8c-.4.6-1 .8-1.7.8-4.4 0-8.7-.2-12.7-.7-4-.4-8.1-.7-12.1-.7-4.2 0-8.6.2-13.1.7-4.5.4-8.6.7-12.2.7-.7 0-1.2-.3-1.5-.8-.3-.6-.5-1.2-.5-1.8s.2-1.3.5-1.9c.3-.6.8-1 1.5-1.1 3.4-.3 6.2-.7 8.2-1.2 2-.5 3.7-1.3 4.8-2.4 1.2-1.1 1.9-2.7 2.3-4.7.4-2 .6-4.9.6-8.6v-65.1zM214.7 800.9c0-3.7-1.1-6.6-3.4-8.9-2.3-2.3-6.2-3.7-11.9-4.2-.6 0-1-.3-1.2-.9-.3-.6-.4-1.2-.4-1.9s.1-1.3.4-1.8c.3-.6.7-.8 1.4-.8h6.3c2.9 0 5.8.1 8.8.2 3 .2 5.7.4 8.1.7 2.4.3 3.9.8 4.3 1.3l67 79.6c1.3 1.4 2 1.2 2-.8v-40.7-6.5c0-2.7-.1-5.3-.2-7.9-.1-2.6-.2-5.1-.4-7.4-.2-2.3-.5-4.2-.9-5.5-.6-1.7-1.1-3-1.7-3.9-.6-.9-1.3-1.7-2.2-2.2-.9-.5-2.1-.8-3.5-1-1.4-.2-3.1-.4-5.1-.6-.6 0-1-.3-1.2-.9-.3-.6-.4-1.2-.4-1.9s.1-1.3.3-1.8c.2-.6.7-.8 1.3-.8 2.7 0 5.5.2 8.6.5 3 .3 6.1.5 9.2.5 2.9 0 5.7-.2 8.6-.5 2.8-.3 6-.5 9.6-.5.7 0 1.2.3 1.5.8.3.6.5 1.2.5 1.8s-.2 1.3-.5 1.9c-.3.6-.8.9-1.5.9-2 .2-3.6.4-4.7.5-1.2.1-2.2.4-3 .8-.8.4-1.6 1.1-2.2 2.1-.7.9-1.4 2.4-2.2 4.2-.6 1.3-1 3.2-1.3 5.5-.3 2.3-.6 4.8-.7 7.5-.2 2.7-.2 5.3-.2 8v79c0 .3-.3.6-.9.8-.6.2-1.3.4-2.2.4-.8.1-1.6 0-2.4-.1-.8-.1-1.3-.3-1.5-.7l-71.5-84.8c-.9-1-1.6-1.5-2-1.4-.4.1-.7.8-.7 2.2v60.5c0 4 .3 7.1.9 9.3.6 2.2 1.6 3.9 2.8 4.9 1.3 1.1 2.9 1.8 4.7 2.2 1.9.4 4.1.7 6.7 1.1.7.1 1.2.4 1.5 1 .3.6.5 1.2.4 1.8-.1.7-.2 1.3-.6 1.8s-.8.8-1.5.8c-2.4 0-5.1-.2-8.1-.6-2.9-.4-6.4-.6-10.4-.6-4.2 0-8 .2-11.2.6-3.3.4-6 .6-8.2.6-.6 0-1-.3-1.3-.8s-.5-1.2-.6-1.8c-.1-.7.1-1.3.4-1.8.3-.6.8-.9 1.5-1 2.9-.3 5.3-.7 7.2-1.1 1.9-.4 3.5-1.1 4.7-2.2 1.2-1.1 2-2.7 2.5-4.9s.7-5.3.7-9.3v-71.3zM343 807.7c0-3.4-.2-6.4-.6-8.8-.4-2.4-1.1-4.4-2.2-6-1.1-1.6-2.7-2.7-4.7-3.6-2.1-.8-4.8-1.4-8.2-1.6-.7 0-1.2-.3-1.5-.9-.3-.6-.5-1.2-.5-1.9s.2-1.3.5-1.8c.3-.6.8-.8 1.5-.8 3.5 0 7.6.2 12.1.6 4.5.4 8.8.6 12.8.6 2.3 0 4.4-.1 6.3-.2 1.9-.1 3.7-.2 5.5-.4 1.8-.2 3.6-.3 5.4-.4 1.8-.1 3.9-.2 6.2-.2.7 0 1.2.3 1.5.8.3.6.5 1.2.5 1.8s-.2 1.3-.5 1.9c-.3.6-.8.9-1.3.9-3.4.2-6.1.7-8.1 1.4-1.9.7-3.4 1.8-4.4 3.3-1 1.5-1.6 3.5-1.8 5.9-.2 2.4-.3 5.5-.3 9.3v29.8c0 1.2.4 2 1.3 2.2.9.3 2.1-.4 3.7-1.9 7.4-7.4 13.8-14.5 19.2-21.2 5.4-6.7 9.5-12.5 12.4-17.4 1.3-2.3 2.1-4.2 2.2-5.6.2-1.4-.1-2.5-.8-3.3-.7-.8-1.8-1.4-3.3-1.7-1.5-.3-3.2-.6-5.2-.8-.8-.1-1.4-.4-1.7-1-.4-.6-.6-1.2-.6-1.8s.2-1.3.5-1.8c.3-.6.8-.8 1.5-.8 3.9 0 7.3.2 10.4.6 3 .4 6.2.6 9.6.6 3 0 5.7-.2 8-.6 2.3-.4 5.2-.6 8.6-.6.6 0 1 .3 1.2.8.3.6.4 1.2.4 1.8s-.1 1.3-.4 1.8c-.3.6-.7.9-1.2 1-2.2.2-4.1.5-5.6.9s-2.8.9-4 1.6c-1.2.7-2.3 1.6-3.3 2.7-1.1 1.2-2.3 2.6-3.7 4.4-2 2.7-4.1 5.4-6.2 8.3-2.2 2.9-4.4 5.7-6.7 8.6-2.3 2.8-4.5 5.6-6.8 8.3-2.3 2.7-4.5 5.1-6.6 7.2-.9.9-1.1 1.7-.7 2.4.4.7 1.1 1.5 2.1 2.4 2.7 2.4 5.4 5.3 8.3 8.5 2.9 3.2 5.8 6.7 8.6 10.5 2.9 3.8 5.7 7.7 8.4 11.7 2.7 4 5.3 8.1 7.7 12.1 2.3 3.9 4.9 6.8 7.6 8.9 2.8 2.1 6.5 3.3 11.1 3.7.7.1 1.2.4 1.5 1 .3.6.5 1.2.5 1.8s-.2 1.3-.5 1.8c-.3.6-.8.8-1.5.8-2.4 0-4.7-.1-6.7-.2s-3.9-.2-5.7-.4c-1.8-.2-3.7-.3-5.6-.5-1.9-.2-3.9-.2-6-.2s-4 .1-5.8.2c-1.8.2-3.5.3-5.2.5-1.7.2-3.5.3-5.2.4-1.8.1-3.8.2-6 .2-.7 0-1.2-.3-1.6-.8-.4-.6-.6-1.2-.7-1.8-.1-.7.1-1.3.5-1.9.4-.6 1-.9 1.7-.9 1.2-.1 2.5-.3 3.7-.6 1.3-.3 2.3-.8 3.1-1.6.8-.8 1.2-1.8 1.3-3.1.1-1.3-.3-2.9-1.3-4.9-1.9-3.7-3.6-6.9-5.2-9.6-1.6-2.8-3.2-5.3-4.9-7.7-1.7-2.4-3.6-4.7-5.7-7s-4.5-4.7-7.2-7.2c-1.3-1.2-2.7-2-4.1-2.3-1.4-.3-2.5-.5-3.4-.5-2.6 0-4.2.7-5 2.1-.8 1.4-1.2 2.9-1.2 4.4v20.9c0 3.7.1 6.5.4 8.6.3 2.1.9 3.7 1.7 4.9.9 1.2 2.2 2 4.1 2.4 1.8.4 4.2.8 7.2 1.2.7.1 1.2.4 1.6 1 .4.6.6 1.2.6 1.8s-.2 1.3-.6 1.8c-.4.6-1 .8-1.7.8-2.2 0-4.2-.1-6.1-.2-1.8-.1-3.6-.2-5.3-.4-1.7-.2-3.4-.3-5.2-.5-1.7-.2-3.6-.2-5.6-.2-4.2 0-8.6.2-13.1.7-4.5.4-8.6.7-12.2.7-.7 0-1.2-.3-1.5-.8-.3-.6-.5-1.2-.5-1.8s.2-1.3.5-1.8c.3-.6.8-.9 1.5-1 3.4-.3 6.2-.7 8.2-1.2 2-.5 3.7-1.3 4.8-2.5 1.2-1.2 1.9-2.8 2.3-4.8.4-2 .6-4.9.6-8.6v-65.2zM462.2 804.7c0 3.3.7 6.1 2.1 8.4 1.4 2.3 3.2 4.2 5.3 5.7 2.2 1.6 4.5 2.9 7.1 4.1 2.6 1.2 5.1 2.3 7.6 3.4 4.2 2 8.4 4.1 12.6 6.3 4.2 2.2 7.9 4.8 11.2 7.7 3.3 2.9 6 6.4 8.1 10.5 2 4 3.1 9 3.1 14.7 0 5.8-1.2 10.6-3.6 14.5-2.4 3.9-5.5 7.1-9.3 9.6-3.8 2.5-8.1 4.3-12.9 5.4-4.8 1.1-9.5 1.7-14.3 1.7-3.1 0-6.6-.5-10.5-1.4-3.9-.9-7.4-2.4-10.6-4.2-.6-.2-1.1-.4-1.6-.7-.5-.2-1.1-.3-1.9-.3-.8 0-1.6.3-2.5 1-.9.7-1.7 1.8-2.3 3.5-.3.7-.8 1.1-1.3 1.3-.6.2-1.1.3-1.7.2-.6-.1-1.1-.2-1.5-.6-.4-.3-.6-.7-.6-1.2.3-2.4.6-5.1.9-7.9.3-2.8.4-5.7.4-8.6 0-2.9-.1-5.8-.2-8.6-.2-2.9-.5-5.9-.9-9-.1-.7.1-1.2.7-1.7.6-.4 1.2-.7 1.8-.7.7-.1 1.3.1 1.9.3.6.3 1 .7 1.1 1.4.7 4.5 1.9 8.7 3.7 12.4 1.8 3.7 4 6.9 6.7 9.5 2.7 2.6 5.7 4.6 9.1 6.1 3.4 1.4 7.1 2.2 11.1 2.2 3 0 5.8-.4 8.6-1.2 2.7-.8 5.1-2 7.2-3.7 2.1-1.6 3.8-3.6 5-5.9 1.2-2.3 1.8-5 1.8-8.1 0-4-.9-7.5-2.6-10.5-1.7-3-3.9-5.6-6.4-7.7-2.6-2.2-5.4-4-8.5-5.7-3.1-1.6-6-3.1-8.8-4.4-3.7-1.7-7.3-3.4-11-5.2-3.7-1.8-6.9-3.9-9.8-6.4-2.9-2.5-5.2-5.5-7-9-1.8-3.5-2.7-7.8-2.7-13.1s1.1-9.8 3.2-13.4c2.2-3.6 5-6.5 8.6-8.7 3.5-2.2 7.6-3.8 12.1-4.8s9.3-1.5 14.1-1.5c3.1 0 5.7.2 7.9.6 2.2.4 4.6 1 7.2 1.9 1.4.4 2.6.8 3.6 1.1.9.3 1.9.4 2.7.4 1.3 0 2.3-.6 2.8-1.7.2-.4.6-.7 1.2-.9.6-.2 1.2-.2 1.7-.2.6.1 1.1.2 1.5.4.4.2.6.6.5 1-.6 2-.9 4-1.1 6-.2 2-.2 4.1-.2 6.3 0 2.9.2 5.5.5 7.8s.6 5.1.8 8.3c0 .3-.2.6-.7.9-.4.3-1 .4-1.6.5-.6.1-1.2 0-1.7-.2-.6-.2-.9-.6-1-1.2-1.1-4.9-2.3-8.9-3.7-12.1-1.3-3.2-3-5.6-5-7.4-2-1.8-4.4-3-7.2-3.7s-6.2-1-10.2-1c-2.8 0-5.4.4-7.9 1.1-2.5.7-4.7 1.8-6.6 3.2-1.9 1.4-3.4 3.2-4.5 5.4-1 2.6-1.6 5.1-1.6 7.8z"/>
    </g>
    <g id="curls" fill="#FFF">
        <path id="curl-right" d="M363.4 461.2c-.3-6.4.9-11 3.4-13.7 2.6-2.8 7.3-4.2 13.8-4.2 25 0 72.6 20.2 141.3 60 1.7-.4 3.4-.7 5.1-1-94.3-56.6-195.3-106.4-192.6-48.5 1.1 24.6 13.7 41.6 37.2 51.2 17.1 6.9 40.1 9.9 68.8 8.8-17.9-.8-33-3.5-44.7-8.3-20.7-8.3-31.3-22.8-32.3-44.3z"/>
        <path id="curl-left" d="M32.9 502.4c1.7.4 3.4.7 5.1 1 68.8-39.8 116.3-60 141.3-60 6.5 0 11.2 1.4 13.8 4.2 2.6 2.7 3.7 7.3 3.5 13.7-1 21.5-11.6 36-32.4 44.4-11.7 4.8-26.8 7.5-44.7 8.3 28.6 1 51.7-1.9 68.8-8.8 23.5-9.5 36.1-26.6 37.2-51.2 2.6-58-98.4-8.1-192.6 48.4z"/>
    </g>
    <g id="branches" fill="#FFF">
        <path id="branches-main" d="M266.1 487.4c38.8-2.1 40.2.7 40.2.7s-1.4-20.8 1.4-138.7c2.8-117.9 145.6-38.8 180.3-63.8-37.5 7.9-80.9-31.7-152.9-15.6-33.9 7.6 22.6-120.3 114-123.4 0 0-43.6-7.7-87.2 29.5 0 0-1.3-56.4-55.1-50 56.4 3.8 43.2 60.5 43.2 60.5-52.6 46.2-55.9 98.2-64 49-10-61.1-51-96.7-51-96.7-23.6-48.2 37.2-75.7 37.2-75.7s-61.5 16.4-47.2 71.6c0 0-46.4-29.3-106.6-10.1C271.1 95.1 304.1 304.5 199 251.9c0 0-44.9-19.2-39.8-73.1 0 0-15.9 36.8 27.8 74.3-85.3 13.9-125.3-12-134.3-19C89.3 273.2 169 261.4 169 261.4c130.3 4.9 80.4 223.9 80.4 223.9s-22.1 4.2 16.7 2.1z"/>
        <g id="branches-N">
          <path d="M392.1 150.7c25.4-33.1 27.4-62.6 18-88.4 7.5 45.9-14.4 75.5-18 88.4z"/>
          <path d="M355 88.1c15.4 20.5-1.3 42.3-1.3 42.3 16.7-7.6 15-30.7 1.3-42.3z"/>
          <path d="M274.6 58.1c6.4-9 9.5-27.4-2.6-35.9 7.7 10.3 2.6 35.9 2.6 35.9z"/>
          <path d="M186.3 108.2s-20.5-23.1-16.7-43.6c-8.2 25.4 9.2 43.5 16.7 43.6z"/>
          <path d="M314.6 113.1s-15.3-15.3-.7-29.1c-5.5 15.2-4.2 18 .7 29.1z"/>
          <path d="M133 140.8s24.3 2.1 27 27c9.7-24.3 29.8-22.2 29.8-22.2-16.6-4.2-29.1 11.1-29.1 11.1-5.5-15.9-27.7-15.9-27.7-15.9z"/>
          <path d="M91.4 160.2s-9 20.1 11.8 30.5c-19.5-3.5-20.8-24.3-11.8-30.5z"/>
        </g>
        <g id="branches-NE">
          <path d="M504.9 168.4c-13.1-26.3-45.9-23-45.9-23s17.4-21.3 13.5-44.7c-1.5 27.3-17.4 46-17.4 46s27-2 49.8 21.7z"/>
          <path d="M432 218.3c17.2-6.8 30.5-29 29.2-39.1-.1 0-12.7 25.7-29.2 39.1z"/>
          <path d="M216.7 187.5c-19.3-.6-33.7 15.5-29.8 39.2 5.5-23.2 13.2-30.9 29.8-39.2z"/>
        </g>
        <g id="branches-E">
          <path d="M345.5 242.3c50.2-21.4 85-22.9 119.9-5.1.1 0-44-41.8-119.9 5.1z"/>
          <path d="M325.6 71.6c-8.3-11.1-33.7-23.5-48.7-9 0 0 17.9-10.2 48.7 9z"/>
          <path d="M500.4 281.5c19.4-8.3 27.7-43 27.7-43s-.7 27-18.7 40.9c32.6 6.9 29.1 37.4 29.1 37.4-4.8-17.9-5.5-26.3-38.1-35.3z"/>
          <path d="M438.6 108.2s-12.7-1-21.6 6.4c7-13.1 21.6-6.4 21.6-6.4z"/>
          <path d="M465.5 224.9s18.4-6.5 18.4-27.2c3.9 16.2-11.5 26.6-11.5 26.6 15.4 3.4 20.2 19 20.2 19s-6.8-13.9-27.1-18.4z"/>
        </g>
        <g id="branches-SE">
          <path d="M421.4 299.6s40.2 5.5 36.1 43c-5.6-20.9-9.8-30.6-36.1-43z"/>
        </g>
        <g id="branches-SW">
          <path d="M101.3 347.6c-14.9-52.7 66-72.5 66-72.5-58 7.6-85.4 45.9-66 72.5z"/>
          <path d="M296.6 130.4c-16.6 2.1-20.1 21.5-15.9 31.2-.1-16.6 3.4-23.6 15.9-31.2z"/>
        </g>
        <g id="branches-W">
          <path d="M120.8 276.6c1 2.3 5.1 4.3 9.9 3.2-3.4-.9-6.7-2-9.9-3.2z"/>
          <path d="M30.1 279.3c6.9-18.8 32.9-29.2 52-14.6 0 .1-31-10.6-52 14.6z"/>
          <path d="M144.8 79.8s10.4-3.5 16.6 4.2c-2.8-9.8-9.7-8.4-16.6-4.2z"/>
        </g>
        <g id="branches-NW">
          <path d="M250.5 65.3c-.5-18.4-20.9-34.6-48.7-26.9 38.5-1.3 48.7 26.9 48.7 26.9z"/>
          <path d="M151.9 237.9c-6.6-26.6-36.9-47-68-39.7 48.8-1.3 68 39.7 68 39.7z"/>
          <path d="M127.4 88.1s-.7 22.2 20.8 27c-20.1-1.3-24.2-14.5-20.8-27z"/>
          <path d="M272.3 99.2s2.1 21.5 23.6 20.8c-16.6 2.8-27-7.6-23.6-20.8z"/>
          <path d="M101.7 302s-21.9-2.8-29.2-18.6c.2 11.5 15.9 21.9 29.2 18.6z"/>
          <path d="M21.4 220.5s18.7-6.2 30.5 5.5c0-22.2 7.6-29.8 7.6-29.8s-10.4 8.3-11.1 22.2c-10.6-6-27 2.1-27 2.1z"/>
          <path d="M404.5 101.2s.4-22.4-24.4-31.5c14.7 8.9 22.5 25.9 24.4 31.5z"/>
        </g>
    </g>
    <g id="cross">
        <path id="cross-outer" fill="#FFF" d="M315.8 531.6h-71.7c-5.1 0-9.7-2.5-12.4-6.7-2.9-4.5-3.3-10.3-.9-15.6 2.4-5.7 17.4-56 17.4-89.8 0-17.2-11.7-19.1-16.7-19.1-2.1 0-8.6.6-23 5.7-2 .7-3.6 1-5.2 1-2 0-4-.4-5.8-1.3-5.3-2.7-7.1-7.5-7.5-8.9l-.5-1.5v-54.1c-.3-4.8 2-9.3 5.9-11.9 2.3-1.5 4.9-2.4 7.7-2.4 2.3 0 4.7.6 6.8 1.7 7.3 3.7 14.7 5.8 20.2 5.8 4.3 0 18.5-1.2 18.5-17.3 0-11.7-6.9-31.1-9.3-37.1-2.5-6.4-.9-10.9 1-13.6 1.7-2.6 5.4-5.9 12.6-5.9h54c7.3 0 11 3.3 12.8 6.1 1.7 2.4 3.4 6.9.9 13.2-2.5 6-9.3 25.5-9.3 37.2 0 16 14.2 17.3 18.5 17.3 5.5 0 12.9-2.2 20.3-5.9 2-1.1 4.4-1.6 6.7-1.6 2.8 0 5.5.8 7.8 2.4 3.9 2.7 6.1 7.2 5.9 11.9V394.6l-.3 1.4c-.7 3.1-3 7.2-7.4 9.5-2.1 1-4.1 1.4-6.1 1.4-1.6 0-3.2-.3-4.7-.8-14.9-5.3-21.4-5.9-23.5-5.9-5 0-16.7 1.9-16.7 19.1 0 33.8 15 84.2 17.4 89.9 2.4 5.2 2 11-.9 15.5-2.8 4.5-7.4 6.9-12.5 6.9z"/>
        <path id="cross-inner" fill="#FFF" d="M253 271.5c-1.5 0-3.1.2-3.8 1.3-.7 1-.3 2.4.1 3.5.4 1 10.1 25.4 10.1 41.1 0 22.1-18.3 28-29.2 28-7.2 0-16.2-2.5-25.1-7.1-1.2-.6-2.6-.6-3.6 0-.9.6-1.3 1.6-1.2 2.8v52.8c.1.2.6 1.7 1.9 2.3.7.3 1.5.4 2.3.1l.5-.2c14.6-5.2 22.6-6.3 26.6-6.3 2.8 0 27.4.8 27.4 29.8 0 36.6-16.3 89.5-18.4 94.2-.9 1.9-.9 4 .1 5.4.7 1.2 2 1.8 3.5 1.8h71.7c1.5 0 2.7-.6 3.5-1.8.9-1.4 1-3.5.1-5.4-2.1-4.7-18.4-57.6-18.4-94.2 0-29 24.6-29.8 27.4-29.8 4.1 0 12 1.1 26.6 6.3l.5.2c.8.3 1.6.2 2.4-.1 1.3-.7 1.8-2.1 1.9-2.3V341c.1-1-.3-2.1-1.2-2.7-1-.7-2.3-.7-3.6 0-9 4.6-17.9 7.1-25.1 7.1-10.8 0-29.2-5.9-29.2-28 0-15.7 9.7-40.1 10.1-41.1.4-1.1.8-2.4.1-3.5-.7-1.1-2.4-1.3-3.8-1.3H253z"/>
        <path id="cross-border" fill="#6C7BBA" d="M253 271.5c-1.5 0-3.1.2-3.8 1.3-.7 1-.3 2.4.1 3.5.4 1 10.1 25.4 10.1 41.1 0 22.1-18.3 28-29.2 28-7.2 0-16.2-2.5-25.1-7.1-1.2-.6-2.6-.6-3.6 0-.9.6-1.3 1.6-1.2 2.8v52.8c.1.2.6 1.7 1.9 2.3.7.3 1.5.4 2.3.1l.5-.2c14.6-5.2 22.6-6.3 26.6-6.3 2.8 0 27.4.8 27.4 29.8 0 36.6-16.3 89.5-18.4 94.2-.9 1.9-.9 4 .1 5.4.7 1.2 2 1.8 3.5 1.8h71.7c1.5 0 2.7-.6 3.5-1.8.9-1.4 1-3.5.1-5.4-2.1-4.7-18.4-57.6-18.4-94.2 0-29 24.6-29.8 27.4-29.8 4.1 0 12 1.1 26.6 6.3l.5.2c.8.3 1.6.2 2.4-.1 1.3-.7 1.8-2.1 1.9-2.3V341c.1-1-.3-2.1-1.2-2.7-1-.7-2.3-.7-3.6 0-9 4.6-17.9 7.1-25.1 7.1-10.8 0-29.2-5.9-29.2-28 0-15.7 9.7-40.1 10.1-41.1.4-1.1.8-2.4.1-3.5-.7-1.1-2.4-1.3-3.8-1.3H253zm8.1 45.8c0-16.1-9.8-40.7-10.2-41.8-.5-1.3-.4-1.7-.3-1.8.1-.1.5-.5 2.4-.5h54c1.8 0 2.3.3 2.4.5.1.1.2.5-.3 1.8-.4 1-10.2 25.7-10.2 41.8 0 23.5 19.5 29.8 31 29.8 7.5 0 16.7-2.6 25.9-7.3.7-.3 1.3-.4 1.7-.1.3.2.5.5.5 1v52.6c-.1.3-.4.9-.9 1.2-.2.1-.5.2-.9 0l-.5-.2c-14.9-5.3-23-6.5-27.2-6.5-3 0-29.2.9-29.2 31.6 0 36.9 16.4 90.2 18.5 94.9.6 1.3.6 2.8 0 3.7-.4.7-1.1 1-2 1h-71.7c-.9 0-1.5-.3-1.9-1-.6-.9-.6-2.3 0-3.7 2.1-4.7 18.5-58.1 18.5-94.9 0-30.7-26.2-31.6-29.2-31.6-4.2 0-12.4 1.1-27.2 6.5l-.5.2c-.5.2-.8.1-.9 0-.5-.2-.8-.9-.9-1.2v-52.4-.2c0-.5.2-.8.5-1 .4-.3 1.1-.3 1.7.1 9.2 4.7 18.4 7.3 25.9 7.3 11.6 0 31-6.3 31-29.8z"/>
        <path id="cross-fill" fill="#6C7BBA" d="M294.3 352.9c-.1 0-.1 0 0 0-1.8-34.7-5.3-61.8-9.8-72.9h-9.1c-4.4 11.2-8 38.2-9.7 72.9h-.1c-27.2 1.1-49 5.1-56.5 10.3v8c7.5 5.2 29.2 9.2 56.2 10.3h.4c1.7 60.8 5.2 108.2 9.6 128.2h9.3c4.4-20 7.9-67.4 9.6-128.2h.4c26.7-1.1 48.2-5 56-10.1V363c-7.8-5.1-29.5-9-56.3-10.1zm23.8 17.5c-5.8 2.1-17.2 3.6-30.8 4 0 2.3.1 4.7.1 7.1 0 23.8-1.7 44.4-4.1 54.3h-6.4c-2.4-9.8-4.1-30.4-4.1-54.3 0-2.4 0-4.8.1-7.1-13.8-.4-25.3-2-31-4.1v-6.1c5.8-2.1 17.4-3.7 31.4-4.1.7-14.6 2-26.6 3.7-33.2h6.3c1.7 6.6 3.1 18.6 3.7 33.2 13.8.4 25.4 1.9 31.3 4v6.3z"/>
    </g>
</svg>